<svg width="328" height="328" viewBox="0 0 328 328" fill="none" xmlns="http://www.w3.org/2000/svg">
<circle cx="164" cy="164" r="163" fill="#00C7FF"/>
<g filter="url(#filter0_i_1155_2930)">
<path d="M1.01015 162.17C0.721546 187.879 6.51832 213.291 17.927 236.331C29.3356 259.371 46.0326 279.385 66.6541 294.739L164 164L1.01015 162.17Z" fill="white"/>
</g>
<path d="M1.01015 162.17C0.721546 187.879 6.51832 213.291 17.927 236.331C29.3356 259.371 46.0326 279.385 66.6541 294.739L164 164L1.01015 162.17Z" stroke="#00C7FF" stroke-width="1.90128" stroke-linejoin="round"/>
<g filter="url(#filter1_i_1155_2930)">
<path d="M296.122 68.5393C316.281 96.4408 327.09 130.008 326.999 164.43C326.908 198.852 315.923 232.362 295.616 260.157L164 164L296.122 68.5393Z" fill="white"/>
</g>
<path d="M296.122 68.5393C316.281 96.4408 327.09 130.008 326.999 164.43C326.908 198.852 315.923 232.362 295.616 260.157L164 164L296.122 68.5393Z" stroke="#00C7FF" stroke-width="1.90128"/>
<g filter="url(#filter2_i_1155_2930)">
<path d="M294.836 261.216C269.053 295.916 230.541 318.953 187.773 325.258C145.005 331.563 101.484 320.62 66.784 294.836L164 164L294.836 261.216Z" fill="white"/>
</g>
<path d="M294.836 261.216C269.053 295.916 230.541 318.953 187.773 325.258C145.005 331.563 101.484 320.62 66.784 294.836L164 164L294.836 261.216Z" stroke="#00C7FF" stroke-width="1.90128"/>
<g filter="url(#filter3_i_1155_2930)">
<path d="M32.9187 67.1149C48.2082 46.4289 68.1764 29.6552 91.1906 18.1651C114.205 6.67506 139.612 0.794921 165.334 1.00546L164 164L32.9187 67.1149Z" fill="white"/>
</g>
<path d="M32.9187 67.1149C48.2082 46.4289 68.1764 29.6552 91.1906 18.1651C114.205 6.67506 139.612 0.794921 165.334 1.00546L164 164L32.9187 67.1149Z" stroke="#00C7FF" stroke-width="1.90128"/>
<g filter="url(#filter4_i_1155_2930)">
<path d="M1.0093 162.259C1.37696 127.839 12.632 94.4183 33.1612 66.7878L164 164L1.0093 162.259Z" fill="white"/>
</g>
<path d="M1.0093 162.259C1.37696 127.839 12.632 94.4183 33.1612 66.7878L164 164L1.0093 162.259Z" stroke="#00C7FF" stroke-width="1.90128"/>
<g filter="url(#filter5_i_1155_2930)">
<path d="M296.066 68.4615C280.997 47.6308 261.214 30.6602 238.333 18.9357C215.452 7.21124 190.122 1.06552 164.412 1.00052L164 164L296.066 68.4615Z" fill="white"/>
</g>
<path d="M296.066 68.4615C280.997 47.6308 261.214 30.6602 238.333 18.9357C215.452 7.21124 190.122 1.06552 164.412 1.00052L164 164L296.066 68.4615Z" stroke="#00C7FF" stroke-width="1.90128" stroke-linejoin="round"/>
<path d="M182.495 67.6191L182.094 60.694V57.7974H183.725V60.694L183.351 67.6191H182.495ZM182.156 70.8633V69.0362H183.663V70.8633H182.156ZM185.936 67.6191L185.535 60.694V57.7974H187.166V60.694L186.792 67.6191H185.936ZM185.597 70.8633V69.0362H187.103V70.8633H185.597ZM189.377 67.6191L188.976 60.694V57.7974H190.607V60.694L190.233 67.6191H189.377ZM189.038 70.8633V69.0362H190.544V70.8633H189.038ZM193.701 70.8633L197.819 57.7974H199.343L203.728 70.8633H202.106L200.858 66.9061H196.384L195.207 70.8633H193.701ZM196.794 65.4979H200.421L199.307 61.8794C198.962 60.7683 198.71 59.8651 198.549 59.17C198.413 60.0077 198.22 60.8396 197.97 61.6655L196.794 65.4979ZM203.933 59.6423V57.7974H205.243V59.6423H203.933ZM203.933 70.8633V61.3981H205.243V70.8633H203.933ZM206.537 70.8633V61.3981H207.722V62.833C208.025 62.1676 208.301 61.7279 208.551 61.514C208.806 61.2941 209.091 61.1842 209.406 61.1842C209.846 61.1842 210.295 61.3565 210.752 61.7011L210.307 63.1895C209.98 62.9578 209.662 62.842 209.353 62.842C209.074 62.842 208.818 62.94 208.586 63.1361C208.355 63.3321 208.191 63.6055 208.096 63.956C207.93 64.568 207.847 65.2186 207.847 65.9079V70.8633H206.537ZM215.833 70.8633V69.669C215.595 70.1265 215.289 70.4771 214.915 70.7207C214.541 70.9583 214.137 71.0772 213.703 71.0772C212.788 71.0772 211.995 70.6464 211.323 69.7849C210.658 68.9174 210.325 67.6993 210.325 66.1307C210.325 65.0552 210.474 64.1432 210.771 63.3945C211.068 62.6459 211.463 62.0903 211.956 61.7279C212.455 61.3654 213.008 61.1842 213.614 61.1842C214.048 61.1842 214.449 61.3001 214.817 61.5318C215.191 61.7576 215.5 62.0755 215.744 62.4854V57.7974H217.063V70.8633H215.833ZM211.671 66.1396C211.671 67.3636 211.882 68.2727 212.304 68.8669C212.731 69.461 213.228 69.7581 213.792 69.7581C214.351 69.7581 214.835 69.4729 215.245 68.9025C215.655 68.3321 215.86 67.4706 215.86 66.3179C215.86 64.9929 215.655 64.0273 215.245 63.4213C214.835 62.8093 214.318 62.5033 213.694 62.5033C213.141 62.5033 212.666 62.7974 212.268 63.3856C211.87 63.9679 211.671 64.8859 211.671 66.1396ZM218.392 70.8633V61.3981H219.577V62.833C219.88 62.1676 220.156 61.7279 220.406 61.514C220.661 61.2941 220.947 61.1842 221.262 61.1842C221.701 61.1842 222.15 61.3565 222.607 61.7011L222.162 63.1895C221.835 62.9578 221.517 62.842 221.208 62.842C220.929 62.842 220.673 62.94 220.442 63.1361C220.21 63.3321 220.046 63.6055 219.951 63.956C219.785 64.568 219.702 65.2186 219.702 65.9079V70.8633H218.392ZM222.162 66.1307C222.162 64.4967 222.504 63.2638 223.187 62.432C223.877 61.6001 224.747 61.1842 225.799 61.1842C226.833 61.1842 227.697 61.6001 228.392 62.432C229.087 63.2638 229.435 64.464 229.435 66.0327C229.435 67.732 229.093 68.9976 228.41 69.8294C227.727 70.6613 226.856 71.0772 225.799 71.0772C224.759 71.0772 223.891 70.6613 223.196 69.8294C222.507 68.9916 222.162 67.7587 222.162 66.1307ZM223.508 66.1307C223.508 67.3547 223.731 68.2667 224.177 68.8669C224.622 69.461 225.175 69.7581 225.834 69.7581C226.452 69.7581 226.981 69.4581 227.421 68.8579C227.866 68.2519 228.089 67.3428 228.089 66.1307C228.089 64.9126 227.866 64.0065 227.421 63.4124C226.975 62.8122 226.423 62.5122 225.763 62.5122C225.139 62.5122 224.607 62.8122 224.168 63.4124C223.728 64.0125 223.508 64.9186 223.508 66.1307ZM230.247 74.4907V61.3981H231.45V62.628C231.747 62.1171 232.077 61.7487 232.439 61.5229C232.802 61.2971 233.218 61.1842 233.687 61.1842C234.299 61.1842 234.852 61.3654 235.345 61.7279C235.838 62.0903 236.233 62.6429 236.53 63.3856C236.833 64.1224 236.985 65.0107 236.985 66.0505C236.985 67.6607 236.646 68.9025 235.969 69.7759C235.297 70.6434 234.507 71.0772 233.598 71.0772C233.194 71.0772 232.817 70.9732 232.466 70.7652C232.116 70.5573 231.812 70.2632 231.557 69.8829V74.4907H230.247ZM231.432 66.1842C231.432 67.4082 231.637 68.3113 232.047 68.8936C232.457 69.4699 232.953 69.7581 233.536 69.7581C234.094 69.7581 234.584 69.4581 235.006 68.8579C235.428 68.2578 235.639 67.3309 235.639 66.0772C235.639 64.8413 235.434 63.9263 235.024 63.3321C234.614 62.738 234.115 62.4409 233.527 62.4409C232.998 62.4409 232.517 62.7617 232.083 63.4034C231.649 64.0392 231.432 64.9661 231.432 66.1842ZM245.872 70.8633H244.553V60.6405C244.25 60.997 243.843 61.3625 243.332 61.7368C242.821 62.1052 242.352 62.3844 241.924 62.5746V61.0238C242.649 60.6079 243.287 60.0998 243.84 59.4997C244.398 58.8996 244.791 58.3144 245.016 57.744H245.872V70.8633ZM206.01 89.8633H204.691V79.6405C204.388 79.997 203.981 80.3625 203.47 80.7368C202.959 81.1052 202.489 81.3844 202.062 81.5746V80.0238C202.787 79.6079 203.425 79.0998 203.978 78.4997C204.536 77.8996 204.929 77.3144 205.154 76.744H206.01V89.8633ZM208.649 86.4408L210.03 86.2982C210.137 87.1301 210.378 87.751 210.752 88.161C211.132 88.565 211.572 88.767 212.071 88.767C212.695 88.767 213.233 88.4818 213.684 87.9114C214.136 87.3351 214.362 86.5508 214.362 85.5585C214.362 84.6257 214.142 83.9037 213.702 83.3927C213.268 82.8758 212.722 82.6173 212.062 82.6173C211.664 82.6173 211.29 82.7302 210.939 82.956C210.595 83.1759 210.321 83.4848 210.119 83.8829L208.881 83.6869L209.923 76.9757H215.244V78.5086H210.975L210.396 82.0202C211.031 81.4736 211.706 81.2002 212.419 81.2002C213.316 81.2002 214.094 81.5835 214.754 82.35C215.419 83.1105 215.752 84.1384 215.752 85.4337C215.752 86.7112 215.419 87.8074 214.754 88.7225C214.094 89.6316 213.206 90.0861 212.089 90.0861C211.162 90.0861 210.378 89.7652 209.736 89.1235C209.1 88.4759 208.738 87.5817 208.649 86.4408ZM216.484 79.9347C216.484 78.8473 216.701 78.0155 217.134 77.4391C217.568 76.8628 218.1 76.5746 218.73 76.5746C219.383 76.5746 219.936 76.8628 220.387 77.4391C220.839 78.0155 221.065 78.877 221.065 80.0238C221.065 81.1468 220.839 82.0053 220.387 82.5995C219.936 83.1878 219.389 83.4819 218.747 83.4819C218.118 83.4819 217.583 83.1907 217.143 82.6084C216.704 82.0202 216.484 81.1289 216.484 79.9347ZM218.774 77.6798C218.447 77.6798 218.174 77.8551 217.954 78.2056C217.74 78.5502 217.633 79.1593 217.633 80.0327C217.633 80.9061 217.74 81.5152 217.954 81.8598C218.174 82.2044 218.456 82.3767 218.801 82.3767C219.116 82.3767 219.38 82.2044 219.594 81.8598C219.814 81.5092 219.924 80.9002 219.924 80.0327C219.924 79.1652 219.814 78.5562 219.594 78.2056C219.374 77.8551 219.101 77.6798 218.774 77.6798ZM218.774 90.3446L224.639 76.5746H225.708L219.87 90.3446H218.774ZM223.418 86.7974C223.418 85.71 223.635 84.8782 224.068 84.3018C224.502 83.7255 225.031 83.4373 225.655 83.4373C226.314 83.4373 226.87 83.7255 227.321 84.3018C227.773 84.8722 227.999 85.7308 227.999 86.8776C227.999 88.0065 227.77 88.868 227.312 89.4622C226.861 90.0504 226.317 90.3446 225.681 90.3446C225.052 90.3446 224.517 90.0504 224.077 89.4622C223.638 88.874 223.418 87.9857 223.418 86.7974ZM225.708 84.5425C225.375 84.5425 225.099 84.7177 224.879 85.0683C224.665 85.4129 224.558 86.022 224.558 86.8954C224.558 87.7688 224.668 88.3778 224.888 88.7225C225.108 89.0671 225.39 89.2394 225.735 89.2394C226.044 89.2394 226.305 89.0641 226.519 88.7136C226.739 88.363 226.849 87.754 226.849 86.8865C226.849 86.019 226.739 85.4129 226.519 85.0683C226.305 84.7177 226.035 84.5425 225.708 84.5425Z" fill="#00C7FF"/>
<path d="M90.2901 59.9258V46.8599H91.7072V59.9258H90.2901ZM93.2677 59.9258V50.4606H94.453V51.8064C94.7382 51.2835 95.0858 50.8944 95.4958 50.6389C95.9117 50.3774 96.3871 50.2467 96.9218 50.2467C97.3377 50.2467 97.721 50.3299 98.0715 50.4963C98.428 50.6567 98.7133 50.8706 98.9272 51.138C99.147 51.3994 99.3104 51.7411 99.4173 52.1629C99.5243 52.5848 99.5778 53.2324 99.5778 54.1059V59.9258H98.2587V54.1682C98.2587 53.4731 98.1993 52.965 98.0805 52.6442C97.9616 52.3233 97.7745 52.0768 97.519 51.9045C97.2694 51.7262 96.9783 51.6371 96.6455 51.6371C96.0157 51.6371 95.5136 51.8718 95.1393 52.3412C94.765 52.8106 94.5778 53.6157 94.5778 54.7565V59.9258H93.2677ZM100.862 48.7048V46.8599H102.172V48.7048H100.862ZM100.862 59.9258V50.4606H102.172V59.9258H100.862ZM106.397 58.4909L106.576 59.908C106.213 60.003 105.886 60.0506 105.595 60.0506C105.138 60.0506 104.769 59.9614 104.49 59.7832C104.211 59.599 104.018 59.3494 103.911 59.0345C103.81 58.7196 103.759 58.0928 103.759 57.154V51.7084H102.797V50.4606H103.759V48.1166L105.069 47.154V50.4606H106.397V51.7084H105.069V57.2431C105.069 57.7541 105.108 58.0838 105.185 58.2324C105.298 58.4463 105.509 58.5532 105.818 58.5532C105.967 58.5532 106.16 58.5324 106.397 58.4909ZM106.906 48.7048V46.8599H108.216V48.7048H106.906ZM106.906 59.9258V50.4606H108.216V59.9258H106.906ZM114.572 58.7582C114.132 59.2157 113.674 59.5604 113.199 59.7921C112.724 60.0238 112.231 60.1397 111.72 60.1397C110.911 60.1397 110.267 59.8961 109.786 59.4089C109.304 58.9216 109.064 58.2651 109.064 57.4392C109.064 56.8925 109.177 56.4083 109.402 55.9864C109.628 55.5646 109.937 55.2348 110.329 54.9971C110.721 54.7595 111.316 54.5842 112.112 54.4713C113.181 54.3168 113.966 54.1326 114.465 53.9187L114.474 53.5087C114.474 52.8611 114.358 52.4065 114.126 52.1451C113.799 51.7648 113.297 51.5747 112.62 51.5747C112.008 51.5747 111.55 51.7024 111.247 51.9579C110.944 52.2075 110.721 52.6798 110.579 53.375L109.286 53.1611C109.471 52.1451 109.842 51.4053 110.401 50.9419C110.965 50.4784 111.77 50.2467 112.816 50.2467C113.63 50.2467 114.269 50.4012 114.732 50.7102C115.195 51.0132 115.487 51.3905 115.605 51.8421C115.73 52.2936 115.793 52.9532 115.793 53.8207V55.9597C115.793 57.457 115.819 58.4017 115.873 58.7939C115.932 59.1801 116.045 59.5574 116.212 59.9258H114.839C114.702 59.599 114.613 59.2098 114.572 58.7582ZM114.465 55.1754C113.983 55.413 113.267 55.6151 112.317 55.7814C111.764 55.8765 111.378 55.9864 111.158 56.1112C110.938 56.23 110.766 56.4023 110.641 56.6281C110.522 56.848 110.463 57.1035 110.463 57.3946C110.463 57.8462 110.603 58.2086 110.882 58.4819C111.161 58.7493 111.547 58.883 112.04 58.883C112.51 58.883 112.935 58.7612 113.315 58.5176C113.701 58.274 113.989 57.9502 114.179 57.5461C114.37 57.1361 114.465 56.542 114.465 55.7636V55.1754ZM117.068 59.9258V46.8599H118.378V59.9258H117.068ZM123.255 59.9258V46.8599H124.672V58.3839H129.948V59.9258H123.255ZM130.938 59.9258V46.8599H134.975C135.926 46.8599 136.627 46.9431 137.079 47.1095C137.697 47.3353 138.19 47.7542 138.558 48.3662C138.927 48.9782 139.111 49.7298 139.111 50.621C139.111 51.7975 138.811 52.7571 138.211 53.4998C137.611 54.2425 136.574 54.6139 135.1 54.6139H132.355V59.9258H130.938ZM132.355 53.072H135.127C136 53.072 136.639 52.8759 137.043 52.4838C137.447 52.0857 137.649 51.4885 137.649 50.6923C137.649 50.1754 137.548 49.7328 137.346 49.3644C137.15 48.996 136.909 48.7435 136.624 48.6068C136.345 48.4701 135.837 48.4018 135.1 48.4018H132.355V53.072ZM105.613 78.9258H104.294V68.703C103.991 69.0595 103.584 69.425 103.073 69.7993C102.562 70.1677 102.093 70.4469 101.665 70.6371V69.0863C102.39 68.6704 103.029 68.1623 103.581 67.5622C104.14 66.9621 104.532 66.3769 104.758 65.8065H105.613V78.9258ZM108.252 75.5033L109.634 75.3607C109.741 76.1926 109.981 76.8135 110.356 77.2235C110.736 77.6275 111.176 77.8295 111.675 77.8295C112.299 77.8295 112.836 77.5443 113.288 76.9739C113.739 76.3976 113.965 75.6133 113.965 74.621C113.965 73.6882 113.745 72.9662 113.306 72.4552C112.872 71.9383 112.325 71.6798 111.666 71.6798C111.268 71.6798 110.893 71.7927 110.543 72.0185C110.198 72.2384 109.925 72.5473 109.723 72.9454L108.484 72.7494L109.527 66.0382H114.848V67.5711H110.578L109.999 71.0827C110.635 70.5361 111.309 70.2627 112.022 70.2627C112.919 70.2627 113.698 70.646 114.357 71.4125C115.023 72.173 115.356 73.2009 115.356 74.4962C115.356 75.7737 115.023 76.8699 114.357 77.785C113.698 78.6941 112.81 79.1486 111.692 79.1486C110.766 79.1486 109.981 78.8277 109.34 78.186C108.704 77.5384 108.341 76.6442 108.252 75.5033ZM116.087 68.9972C116.087 67.9098 116.304 67.078 116.738 66.5016C117.171 65.9253 117.703 65.6371 118.333 65.6371C118.987 65.6371 119.539 65.9253 119.991 66.5016C120.442 67.078 120.668 67.9395 120.668 69.0863C120.668 70.2093 120.442 71.0678 119.991 71.662C119.539 72.2503 118.993 72.5444 118.351 72.5444C117.721 72.5444 117.186 72.2532 116.747 71.6709C116.307 71.0827 116.087 70.1914 116.087 68.9972ZM118.378 66.7423C118.051 66.7423 117.778 66.9176 117.558 67.2681C117.344 67.6127 117.237 68.2218 117.237 69.0952C117.237 69.9686 117.344 70.5777 117.558 70.9223C117.778 71.2669 118.06 71.4392 118.404 71.4392C118.719 71.4392 118.984 71.2669 119.198 70.9223C119.417 70.5717 119.527 69.9627 119.527 69.0952C119.527 68.2277 119.417 67.6187 119.198 67.2681C118.978 66.9176 118.704 66.7423 118.378 66.7423ZM118.378 79.4071L124.242 65.6371H125.312L119.474 79.4071H118.378ZM123.021 75.8599C123.021 74.7725 123.238 73.9407 123.672 73.3643C124.105 72.788 124.634 72.4998 125.258 72.4998C125.918 72.4998 126.473 72.788 126.925 73.3643C127.376 73.9347 127.602 74.7933 127.602 75.9401C127.602 77.069 127.373 77.9305 126.916 78.5247C126.464 79.1129 125.921 79.4071 125.285 79.4071C124.655 79.4071 124.12 79.1129 123.681 78.5247C123.241 77.9365 123.021 77.0482 123.021 75.8599ZM125.312 73.605C124.979 73.605 124.703 73.7802 124.483 74.1308C124.269 74.4754 124.162 75.0845 124.162 75.9579C124.162 76.8313 124.272 77.4403 124.492 77.785C124.712 78.1296 124.994 78.3019 125.338 78.3019C125.647 78.3019 125.909 78.1266 126.123 77.7761C126.343 77.4255 126.452 76.8165 126.452 75.949C126.452 75.0815 126.343 74.4754 126.123 74.1308C125.909 73.7802 125.638 73.605 125.312 73.605Z" fill="#00C7FF"/>
<path d="M234.107 156.537L233.706 149.612V146.715H235.337V149.612L234.963 156.537H234.107ZM233.769 159.781V157.954H235.275V159.781H233.769ZM237.548 156.537L237.147 149.612V146.715H238.778V149.612L238.404 156.537H237.548ZM237.209 159.781V157.954H238.716V159.781H237.209ZM240.989 156.537L240.588 149.612V146.715H242.219V149.612L241.845 156.537H240.989ZM240.65 159.781V157.954H242.157V159.781H240.65ZM245.313 159.781L249.431 146.715H250.955L255.34 159.781H253.718L252.47 155.824H247.996L246.819 159.781H245.313ZM248.406 154.416H252.033L250.919 150.797C250.575 149.686 250.322 148.783 250.162 148.088C250.025 148.926 249.832 149.758 249.582 150.583L248.406 154.416ZM255.546 148.56V146.715H256.856V148.56H255.546ZM255.546 159.781V150.316H256.856V159.781H255.546ZM258.149 159.781V150.316H259.334V151.751C259.637 151.086 259.913 150.646 260.163 150.432C260.418 150.212 260.704 150.102 261.019 150.102C261.458 150.102 261.907 150.274 262.364 150.619L261.919 152.108C261.592 151.876 261.274 151.76 260.965 151.76C260.686 151.76 260.43 151.858 260.199 152.054C259.967 152.25 259.803 152.523 259.708 152.874C259.542 153.486 259.459 154.137 259.459 154.826V159.781H258.149ZM267.445 159.781V158.587C267.208 159.044 266.902 159.395 266.527 159.639C266.153 159.876 265.749 159.995 265.315 159.995C264.4 159.995 263.607 159.564 262.936 158.703C262.27 157.835 261.937 156.617 261.937 155.049C261.937 153.973 262.086 153.061 262.383 152.313C262.68 151.564 263.075 151.008 263.568 150.646C264.067 150.283 264.62 150.102 265.226 150.102C265.66 150.102 266.061 150.218 266.429 150.45C266.804 150.676 267.113 150.993 267.356 151.403V146.715H268.675V159.781H267.445ZM263.283 155.058C263.283 156.282 263.494 157.191 263.916 157.785C264.344 158.379 264.84 158.676 265.404 158.676C265.963 158.676 266.447 158.391 266.857 157.82C267.267 157.25 267.472 156.389 267.472 155.236C267.472 153.911 267.267 152.945 266.857 152.339C266.447 151.727 265.93 151.421 265.306 151.421C264.754 151.421 264.278 151.715 263.88 152.304C263.482 152.886 263.283 153.804 263.283 155.058ZM270.004 159.781V150.316H271.189V151.751C271.492 151.086 271.769 150.646 272.018 150.432C272.274 150.212 272.559 150.102 272.874 150.102C273.313 150.102 273.762 150.274 274.22 150.619L273.774 152.108C273.447 151.876 273.129 151.76 272.82 151.76C272.541 151.76 272.286 151.858 272.054 152.054C271.822 152.25 271.659 152.523 271.564 152.874C271.397 153.486 271.314 154.137 271.314 154.826V159.781H270.004ZM273.775 155.049C273.775 153.415 274.116 152.182 274.8 151.35C275.489 150.518 276.359 150.102 277.411 150.102C278.445 150.102 279.309 150.518 280.005 151.35C280.7 152.182 281.047 153.382 281.047 154.951C281.047 156.65 280.706 157.916 280.022 158.747C279.339 159.579 278.469 159.995 277.411 159.995C276.371 159.995 275.504 159.579 274.808 158.747C274.119 157.91 273.775 156.677 273.775 155.049ZM275.12 155.049C275.12 156.273 275.343 157.185 275.789 157.785C276.235 158.379 276.787 158.676 277.447 158.676C278.065 158.676 278.593 158.376 279.033 157.776C279.479 157.17 279.702 156.261 279.702 155.049C279.702 153.831 279.479 152.924 279.033 152.33C278.587 151.73 278.035 151.43 277.375 151.43C276.751 151.43 276.22 151.73 275.78 152.33C275.34 152.93 275.12 153.837 275.12 155.049ZM281.859 163.409V150.316H283.062V151.546C283.359 151.035 283.689 150.667 284.052 150.441C284.414 150.215 284.83 150.102 285.299 150.102C285.911 150.102 286.464 150.283 286.957 150.646C287.45 151.008 287.845 151.561 288.142 152.304C288.445 153.04 288.597 153.929 288.597 154.968C288.597 156.579 288.258 157.82 287.581 158.694C286.91 159.561 286.119 159.995 285.21 159.995C284.806 159.995 284.429 159.891 284.078 159.683C283.728 159.475 283.425 159.181 283.169 158.801V163.409H281.859ZM283.044 155.102C283.044 156.326 283.249 157.229 283.659 157.812C284.069 158.388 284.566 158.676 285.148 158.676C285.706 158.676 286.197 158.376 286.618 157.776C287.04 157.176 287.251 156.249 287.251 154.995C287.251 153.759 287.046 152.844 286.636 152.25C286.226 151.656 285.727 151.359 285.139 151.359C284.61 151.359 284.129 151.68 283.695 152.321C283.261 152.957 283.044 153.884 283.044 155.102ZM299.463 158.239V159.781H292.377C292.36 159.157 292.547 158.459 292.939 157.687C293.337 156.914 294.062 156.002 295.114 154.951C296.343 153.727 297.149 152.782 297.529 152.116C297.909 151.445 298.099 150.821 298.099 150.245C298.099 149.579 297.903 149.039 297.511 148.623C297.125 148.201 296.646 147.99 296.076 147.99C295.464 147.99 294.962 148.216 294.57 148.667C294.178 149.119 293.982 149.766 293.982 150.61L292.627 150.441C292.722 149.187 293.075 148.245 293.687 147.616C294.305 146.98 295.116 146.662 296.121 146.662C297.214 146.662 298.04 147.03 298.598 147.767C299.163 148.504 299.445 149.342 299.445 150.28C299.445 151.112 299.225 151.911 298.785 152.678C298.346 153.438 297.511 154.454 296.281 155.726C295.497 156.528 294.989 157.075 294.757 157.366C294.531 157.657 294.347 157.948 294.204 158.239H299.463ZM259.601 177.239V178.781H252.515C252.497 178.157 252.685 177.459 253.077 176.687C253.475 175.914 254.2 175.002 255.251 173.951C256.481 172.727 257.286 171.782 257.667 171.116C258.047 170.445 258.237 169.821 258.237 169.245C258.237 168.579 258.041 168.039 257.649 167.623C257.263 167.201 256.784 166.99 256.214 166.99C255.602 166.99 255.1 167.216 254.708 167.667C254.316 168.119 254.12 168.766 254.12 169.61L252.765 169.441C252.86 168.187 253.213 167.245 253.825 166.616C254.443 165.98 255.254 165.662 256.259 165.662C257.352 165.662 258.178 166.03 258.736 166.767C259.301 167.504 259.583 168.342 259.583 169.28C259.583 170.112 259.363 170.911 258.923 171.678C258.484 172.438 257.649 173.454 256.419 174.726C255.635 175.528 255.127 176.075 254.895 176.366C254.669 176.657 254.485 176.948 254.342 177.239H259.601ZM260.261 172.337C260.261 170.145 260.555 168.484 261.143 167.355C261.738 166.226 262.611 165.662 263.764 165.662C264.786 165.662 265.591 166.119 266.179 167.034C266.892 168.14 267.248 169.907 267.248 172.337C267.248 174.518 266.954 176.176 266.366 177.311C265.778 178.44 264.904 179.004 263.746 179.004C262.724 179.004 261.886 178.505 261.232 177.507C260.585 176.509 260.261 174.785 260.261 172.337ZM261.607 172.337C261.607 174.459 261.809 175.882 262.213 176.607C262.623 177.326 263.146 177.685 263.781 177.685C264.382 177.685 264.884 177.32 265.288 176.589C265.692 175.858 265.894 174.441 265.894 172.337C265.894 170.21 265.689 168.787 265.279 168.068C264.875 167.349 264.349 166.99 263.701 166.99C263.107 166.99 262.608 167.355 262.204 168.086C261.806 168.817 261.607 170.234 261.607 172.337ZM268.096 168.853C268.096 167.765 268.313 166.933 268.747 166.357C269.18 165.781 269.712 165.493 270.342 165.493C270.995 165.493 271.548 165.781 272 166.357C272.451 166.933 272.677 167.795 272.677 168.942C272.677 170.065 272.451 170.923 272 171.517C271.548 172.106 271.001 172.4 270.36 172.4C269.73 172.4 269.195 172.109 268.755 171.526C268.316 170.938 268.096 170.047 268.096 168.853ZM270.386 166.598C270.06 166.598 269.786 166.773 269.566 167.124C269.353 167.468 269.246 168.077 269.246 168.951C269.246 169.824 269.353 170.433 269.566 170.778C269.786 171.122 270.069 171.295 270.413 171.295C270.728 171.295 270.992 171.122 271.206 170.778C271.426 170.427 271.536 169.818 271.536 168.951C271.536 168.083 271.426 167.474 271.206 167.124C270.987 166.773 270.713 166.598 270.386 166.598ZM270.386 179.263L276.251 165.493H277.32L271.483 179.263H270.386ZM275.03 175.715C275.03 174.628 275.247 173.796 275.68 173.22C276.114 172.643 276.643 172.355 277.267 172.355C277.926 172.355 278.482 172.643 278.934 173.22C279.385 173.79 279.611 174.649 279.611 175.796C279.611 176.924 279.382 177.786 278.925 178.38C278.473 178.968 277.929 179.263 277.294 179.263C276.664 179.263 276.129 178.968 275.689 178.38C275.25 177.792 275.03 176.904 275.03 175.715ZM277.32 173.46C276.988 173.46 276.711 173.636 276.492 173.986C276.278 174.331 276.171 174.94 276.171 175.813C276.171 176.687 276.281 177.296 276.5 177.64C276.72 177.985 277.003 178.157 277.347 178.157C277.656 178.157 277.918 177.982 278.131 177.632C278.351 177.281 278.461 176.672 278.461 175.804C278.461 174.937 278.351 174.331 278.131 173.986C277.918 173.636 277.647 173.46 277.32 173.46Z" fill="#00C7FF"/>
<path d="M152.075 255.444L151.674 248.519V245.622H153.305V248.519L152.93 255.444H152.075ZM151.736 258.688V256.861H153.242V258.688H151.736ZM155.516 255.444L155.115 248.519V245.622H156.746V248.519L156.371 255.444H155.516ZM155.177 258.688V256.861H156.683V258.688H155.177ZM158.957 255.444L158.556 248.519V245.622H160.187V248.519L159.812 255.444H158.957ZM158.618 258.688V256.861H160.124V258.688H158.618ZM163.281 258.688L167.398 245.622H168.922L173.307 258.688H171.685L170.438 254.731H165.964L164.787 258.688H163.281ZM166.373 253.323H170.001L168.887 249.704C168.542 248.593 168.29 247.69 168.129 246.995C167.993 247.832 167.8 248.664 167.55 249.49L166.373 253.323ZM173.513 247.467V245.622H174.823V247.467H173.513ZM173.513 258.688V249.223H174.823V258.688H173.513ZM176.116 258.688V249.223H177.302V250.658C177.605 249.992 177.881 249.553 178.131 249.339C178.386 249.119 178.671 249.009 178.986 249.009C179.426 249.009 179.875 249.181 180.332 249.526L179.886 251.014C179.56 250.783 179.242 250.667 178.933 250.667C178.653 250.667 178.398 250.765 178.166 250.961C177.935 251.157 177.771 251.43 177.676 251.781C177.51 252.393 177.427 253.043 177.427 253.733V258.688H176.116ZM185.413 258.688V257.494C185.175 257.951 184.869 258.302 184.495 258.545C184.121 258.783 183.717 258.902 183.283 258.902C182.368 258.902 181.575 258.471 180.903 257.61C180.238 256.742 179.905 255.524 179.905 253.955C179.905 252.88 180.053 251.968 180.351 251.219C180.648 250.471 181.043 249.915 181.536 249.553C182.035 249.19 182.588 249.009 183.194 249.009C183.627 249.009 184.028 249.125 184.397 249.357C184.771 249.582 185.08 249.9 185.324 250.31V245.622H186.643V258.688H185.413ZM181.251 253.964C181.251 255.188 181.462 256.097 181.884 256.692C182.311 257.286 182.807 257.583 183.372 257.583C183.93 257.583 184.415 257.298 184.825 256.727C185.235 256.157 185.44 255.295 185.44 254.143C185.44 252.818 185.235 251.852 184.825 251.246C184.415 250.634 183.898 250.328 183.274 250.328C182.721 250.328 182.246 250.622 181.848 251.21C181.45 251.793 181.251 252.711 181.251 253.964ZM187.972 258.688V249.223H189.157V250.658C189.46 249.992 189.736 249.553 189.986 249.339C190.241 249.119 190.526 249.009 190.841 249.009C191.281 249.009 191.73 249.181 192.187 249.526L191.742 251.014C191.415 250.783 191.097 250.667 190.788 250.667C190.509 250.667 190.253 250.765 190.021 250.961C189.79 251.157 189.626 251.43 189.531 251.781C189.365 252.393 189.282 253.043 189.282 253.733V258.688H187.972ZM191.742 253.955C191.742 252.321 192.084 251.089 192.767 250.257C193.456 249.425 194.327 249.009 195.379 249.009C196.412 249.009 197.277 249.425 197.972 250.257C198.667 251.089 199.015 252.289 199.015 253.857C199.015 255.557 198.673 256.822 197.99 257.654C197.307 258.486 196.436 258.902 195.379 258.902C194.339 258.902 193.471 258.486 192.776 257.654C192.087 256.816 191.742 255.583 191.742 253.955ZM193.088 253.955C193.088 255.179 193.311 256.091 193.757 256.692C194.202 257.286 194.755 257.583 195.414 257.583C196.032 257.583 196.561 257.283 197.001 256.683C197.446 256.077 197.669 255.168 197.669 253.955C197.669 252.737 197.446 251.831 197.001 251.237C196.555 250.637 196.003 250.337 195.343 250.337C194.719 250.337 194.187 250.637 193.748 251.237C193.308 251.837 193.088 252.743 193.088 253.955ZM199.827 262.315V249.223H201.03V250.453C201.327 249.942 201.657 249.573 202.019 249.348C202.382 249.122 202.798 249.009 203.267 249.009C203.879 249.009 204.432 249.19 204.925 249.553C205.418 249.915 205.813 250.468 206.11 251.21C206.413 251.947 206.565 252.835 206.565 253.875C206.565 255.485 206.226 256.727 205.549 257.601C204.877 258.468 204.087 258.902 203.178 258.902C202.774 258.902 202.397 258.798 202.046 258.59C201.695 258.382 201.392 258.088 201.137 257.708V262.315H199.827ZM201.012 254.009C201.012 255.233 201.217 256.136 201.627 256.718C202.037 257.295 202.533 257.583 203.115 257.583C203.674 257.583 204.164 257.283 204.586 256.683C205.008 256.083 205.219 255.156 205.219 253.902C205.219 252.666 205.014 251.751 204.604 251.157C204.194 250.563 203.695 250.266 203.107 250.266C202.578 250.266 202.096 250.586 201.663 251.228C201.229 251.864 201.012 252.791 201.012 254.009ZM210.505 255.239L211.824 255.025C212.098 256.736 212.79 257.592 213.901 257.592C214.501 257.592 215.021 257.339 215.461 256.834C215.901 256.323 216.12 255.664 216.12 254.856C216.12 254.095 215.918 253.483 215.514 253.02C215.11 252.556 214.614 252.324 214.026 252.324C213.776 252.324 213.467 252.384 213.099 252.503L213.25 251.094L213.455 251.112C214.103 251.112 214.629 250.913 215.033 250.515C215.437 250.117 215.639 249.585 215.639 248.92C215.639 248.308 215.47 247.818 215.131 247.449C214.792 247.075 214.379 246.888 213.892 246.888C213.387 246.888 212.959 247.084 212.609 247.476C212.264 247.862 212.044 248.45 211.949 249.241L210.639 248.955C210.805 247.838 211.18 246.995 211.762 246.424C212.344 245.854 213.048 245.569 213.874 245.569C214.742 245.569 215.479 245.89 216.085 246.531C216.691 247.173 216.994 247.981 216.994 248.955C216.994 249.55 216.863 250.075 216.602 250.533C216.346 250.99 215.987 251.35 215.523 251.611C215.951 251.73 216.305 251.926 216.584 252.2C216.863 252.473 217.089 252.838 217.261 253.296C217.433 253.753 217.52 254.264 217.52 254.829C217.52 256.029 217.166 257.012 216.459 257.779C215.752 258.539 214.905 258.92 213.919 258.92C213.004 258.92 212.229 258.587 211.593 257.922C210.957 257.256 210.595 256.362 210.505 255.239ZM177.568 276.146V277.688H170.483C170.465 277.064 170.652 276.366 171.044 275.594C171.442 274.821 172.167 273.909 173.219 272.857C174.449 271.633 175.254 270.689 175.634 270.023C176.015 269.352 176.205 268.728 176.205 268.152C176.205 267.486 176.009 266.945 175.617 266.529C175.23 266.108 174.752 265.897 174.182 265.897C173.57 265.897 173.068 266.122 172.675 266.574C172.283 267.026 172.087 267.673 172.087 268.517L170.732 268.348C170.828 267.094 171.181 266.152 171.793 265.522C172.411 264.887 173.222 264.569 174.226 264.569C175.319 264.569 176.145 264.937 176.704 265.674C177.268 266.411 177.551 267.248 177.551 268.187C177.551 269.019 177.331 269.818 176.891 270.585C176.451 271.345 175.617 272.361 174.387 273.633C173.602 274.435 173.094 274.982 172.863 275.273C172.637 275.564 172.453 275.855 172.31 276.146H177.568ZM178.229 274.266L179.61 274.123C179.717 274.955 179.958 275.576 180.332 275.986C180.712 276.39 181.152 276.592 181.651 276.592C182.275 276.592 182.813 276.307 183.264 275.736C183.716 275.16 183.942 274.375 183.942 273.383C183.942 272.45 183.722 271.728 183.282 271.217C182.848 270.701 182.302 270.442 181.642 270.442C181.244 270.442 180.87 270.555 180.519 270.781C180.175 271.001 179.901 271.31 179.699 271.708L178.46 271.512L179.503 264.8H184.824V266.333H180.555L179.976 269.845C180.611 269.298 181.286 269.025 181.999 269.025C182.896 269.025 183.674 269.408 184.334 270.175C184.999 270.935 185.332 271.963 185.332 273.258C185.332 274.536 184.999 275.632 184.334 276.547C183.674 277.456 182.786 277.911 181.669 277.911C180.742 277.911 179.958 277.59 179.316 276.948C178.68 276.301 178.318 275.406 178.229 274.266ZM186.064 267.759C186.064 266.672 186.28 265.84 186.714 265.264C187.148 264.687 187.68 264.399 188.31 264.399C188.963 264.399 189.516 264.687 189.967 265.264C190.419 265.84 190.645 266.702 190.645 267.848C190.645 268.971 190.419 269.83 189.967 270.424C189.516 271.012 188.969 271.307 188.327 271.307C187.698 271.307 187.163 271.015 186.723 270.433C186.283 269.845 186.064 268.954 186.064 267.759ZM188.354 265.504C188.027 265.504 187.754 265.68 187.534 266.03C187.32 266.375 187.213 266.984 187.213 267.857C187.213 268.731 187.32 269.34 187.534 269.684C187.754 270.029 188.036 270.201 188.381 270.201C188.696 270.201 188.96 270.029 189.174 269.684C189.394 269.334 189.504 268.725 189.504 267.857C189.504 266.99 189.394 266.381 189.174 266.03C188.954 265.68 188.681 265.504 188.354 265.504ZM188.354 278.169L194.219 264.399H195.288L189.45 278.169H188.354ZM192.998 274.622C192.998 273.535 193.214 272.703 193.648 272.127C194.082 271.55 194.611 271.262 195.235 271.262C195.894 271.262 196.45 271.55 196.901 272.127C197.353 272.697 197.579 273.556 197.579 274.702C197.579 275.831 197.35 276.693 196.892 277.287C196.441 277.875 195.897 278.169 195.261 278.169C194.632 278.169 194.097 277.875 193.657 277.287C193.217 276.699 192.998 275.81 192.998 274.622ZM195.288 272.367C194.955 272.367 194.679 272.542 194.459 272.893C194.245 273.238 194.138 273.847 194.138 274.72C194.138 275.594 194.248 276.203 194.468 276.547C194.688 276.892 194.97 277.064 195.315 277.064C195.624 277.064 195.885 276.889 196.099 276.538C196.319 276.188 196.429 275.579 196.429 274.711C196.429 273.844 196.319 273.238 196.099 272.893C195.885 272.542 195.615 272.367 195.288 272.367Z" fill="#00C7FF"/>
<path d="M39.5695 207.438V194.372H47.3145V195.914H40.9866V199.915H46.9135V201.448H40.9866V205.896H47.5641V207.438H39.5695ZM53.6878 203.971L54.9801 204.175C54.8315 205.304 54.4572 206.166 53.8571 206.76C53.2629 207.354 52.547 207.651 51.7092 207.651C50.6931 207.651 49.8554 207.235 49.1958 206.404C48.5422 205.566 48.2154 204.33 48.2154 202.696C48.2154 201.05 48.5452 199.817 49.2047 198.997C49.8702 198.171 50.7228 197.758 51.7626 197.758C52.5648 197.758 53.2392 198.008 53.7858 198.507C54.3384 199.006 54.6919 199.755 54.8464 200.753L53.5719 200.994C53.4471 200.352 53.2303 199.874 52.9213 199.559C52.6123 199.238 52.241 199.077 51.8072 199.077C51.1596 199.077 50.6218 199.366 50.194 199.942C49.7722 200.512 49.5612 201.422 49.5612 202.669C49.5612 203.959 49.7633 204.891 50.1673 205.468C50.5773 206.044 51.1001 206.332 51.7359 206.332C52.235 206.332 52.6598 206.142 53.0104 205.762C53.3669 205.376 53.5927 204.779 53.6878 203.971ZM54.8649 202.705C54.8649 201.071 55.2066 199.838 55.8899 199.006C56.5791 198.174 57.4496 197.758 58.5013 197.758C59.5351 197.758 60.3997 198.174 61.0948 199.006C61.79 199.838 62.1376 201.038 62.1376 202.607C62.1376 204.306 61.796 205.572 61.1127 206.404C60.4294 207.235 59.5589 207.651 58.5013 207.651C57.4615 207.651 56.594 207.235 55.8988 206.404C55.2096 205.566 54.8649 204.333 54.8649 202.705ZM56.2107 202.705C56.2107 203.929 56.4336 204.841 56.8792 205.441C57.3248 206.035 57.8774 206.332 58.5369 206.332C59.1549 206.332 59.6837 206.032 60.1234 205.432C60.569 204.826 60.7918 203.917 60.7918 202.705C60.7918 201.487 60.569 200.581 60.1234 199.987C59.6777 199.386 59.1252 199.086 58.4656 199.086C57.8417 199.086 57.31 199.386 56.8703 199.987C56.4306 200.587 56.2107 201.493 56.2107 202.705ZM62.4503 204.612L63.7515 204.363C63.8287 205.028 64.0397 205.524 64.3843 205.851C64.7289 206.172 65.1864 206.332 65.7568 206.332C66.3272 206.332 66.7669 206.193 67.0759 205.913C67.3908 205.628 67.5483 205.269 67.5483 204.835C67.5483 204.461 67.4146 204.17 67.1472 203.962C66.963 203.819 66.5174 203.641 65.8103 203.427C64.7883 203.112 64.105 202.845 63.7604 202.625C63.4158 202.405 63.1484 202.111 62.9583 201.742C62.7681 201.374 62.6731 200.955 62.6731 200.486C62.6731 199.678 62.9315 199.021 63.4485 198.516C63.9654 198.011 64.6814 197.758 65.5964 197.758C66.1728 197.758 66.6778 197.862 67.1115 198.07C67.5512 198.278 67.8869 198.558 68.1187 198.908C68.3504 199.259 68.5108 199.761 68.6 200.414L67.3165 200.628C67.1977 199.594 66.6362 199.077 65.6321 199.077C65.0617 199.077 64.6368 199.193 64.3576 199.425C64.0783 199.651 63.9387 199.942 63.9387 200.299C63.9387 200.649 64.0724 200.925 64.3397 201.127C64.5002 201.246 64.9755 201.436 65.7657 201.698C66.8531 202.048 67.5572 202.328 67.878 202.536C68.1989 202.738 68.4484 203.017 68.6267 203.373C68.8049 203.724 68.8941 204.143 68.8941 204.63C68.8941 205.533 68.6059 206.264 68.0295 206.823C67.4591 207.381 66.6778 207.66 65.6855 207.66C63.8258 207.66 62.7474 206.644 62.4503 204.612ZM69.6702 211.083L69.5276 209.577C69.8187 209.672 70.0683 209.719 70.2762 209.719C70.5555 209.719 70.7842 209.663 70.9625 209.55C71.1467 209.437 71.2982 209.262 71.417 209.024C71.4586 208.941 71.6309 208.418 71.934 207.455L68.9839 197.972H70.401L72.0231 203.454C72.2251 204.137 72.4123 204.868 72.5846 205.646C72.7331 204.909 72.9114 204.19 73.1193 203.489L74.7771 197.972H76.0961L73.1461 207.598C72.7599 208.846 72.4539 209.678 72.2281 210.093C72.0082 210.515 71.7557 210.818 71.4705 211.003C71.1913 211.187 70.8734 211.279 70.5169 211.279C70.2673 211.279 69.9851 211.213 69.6702 211.083ZM75.9632 204.612L77.2644 204.363C77.3417 205.028 77.5526 205.524 77.8972 205.851C78.2418 206.172 78.6993 206.332 79.2697 206.332C79.8402 206.332 80.2798 206.193 80.5888 205.913C80.9037 205.628 81.0612 205.269 81.0612 204.835C81.0612 204.461 80.9275 204.17 80.6601 203.962C80.4759 203.819 80.0303 203.641 79.3232 203.427C78.3012 203.112 77.6179 202.845 77.2733 202.625C76.9287 202.405 76.6613 202.111 76.4712 201.742C76.2811 201.374 76.186 200.955 76.186 200.486C76.186 199.678 76.4445 199.021 76.9614 198.516C77.4783 198.011 78.1943 197.758 79.1093 197.758C79.6857 197.758 80.1907 197.862 80.6245 198.07C81.0641 198.278 81.3999 198.558 81.6316 198.908C81.8633 199.259 82.0237 199.761 82.1129 200.414L80.8294 200.628C80.7106 199.594 80.1491 199.077 79.145 199.077C78.5746 199.077 78.1497 199.193 77.8705 199.425C77.5912 199.651 77.4516 199.942 77.4516 200.299C77.4516 200.649 77.5853 200.925 77.8526 201.127C78.0131 201.246 78.4884 201.436 79.2787 201.698C80.366 202.048 81.0701 202.328 81.3909 202.536C81.7118 202.738 81.9613 203.017 82.1396 203.373C82.3179 203.724 82.407 204.143 82.407 204.63C82.407 205.533 82.1188 206.264 81.5425 206.823C80.9721 207.381 80.1907 207.66 79.1984 207.66C77.3387 207.66 76.2603 206.644 75.9632 204.612ZM86.151 206.003L86.3292 207.42C85.9668 207.515 85.64 207.562 85.3488 207.562C84.8913 207.562 84.5229 207.473 84.2437 207.295C83.9644 207.111 83.7713 206.861 83.6644 206.546C83.5634 206.231 83.5129 205.604 83.5129 204.666V199.22H82.5503V197.972H83.5129V195.628L84.823 194.666V197.972H86.151V199.22H84.823V204.755C84.823 205.266 84.8616 205.596 84.9389 205.744C85.0518 205.958 85.2627 206.065 85.5717 206.065C85.7202 206.065 85.9133 206.044 86.151 206.003ZM91.9716 204.389L93.3263 204.594C93.1005 205.604 92.6906 206.368 92.0964 206.885C91.5082 207.396 90.7773 207.651 89.9039 207.651C88.8047 207.651 87.9134 207.235 87.2301 206.404C86.5528 205.566 86.2141 204.36 86.2141 202.785C86.2141 201.151 86.5557 199.906 87.239 199.051C87.9283 198.189 88.7987 197.758 89.8504 197.758C90.8546 197.758 91.6923 198.18 92.3638 199.024C93.0352 199.868 93.3709 201.089 93.3709 202.687L93.362 203.115H87.5688C87.6223 204.178 87.8688 204.981 88.3085 205.521C88.7482 206.062 89.283 206.332 89.9128 206.332C90.8991 206.332 91.5854 205.685 91.9716 204.389ZM87.649 201.796H91.9805C91.9211 200.976 91.7458 200.364 91.4547 199.96C91.0328 199.372 90.4951 199.077 89.8415 199.077C89.2533 199.077 88.7512 199.324 88.3353 199.817C87.9194 200.304 87.6906 200.964 87.649 201.796ZM94.2718 207.438V197.972H95.4482V199.3C95.7097 198.807 96.0454 198.427 96.4554 198.159C96.8653 197.892 97.3139 197.758 97.8012 197.758C98.3478 197.758 98.8083 197.901 99.1826 198.186C99.5629 198.465 99.8332 198.875 99.9937 199.416C100.303 198.864 100.656 198.451 101.054 198.177C101.458 197.898 101.904 197.758 102.391 197.758C103.134 197.758 103.719 198.011 104.147 198.516C104.575 199.021 104.789 199.829 104.789 200.94V207.438H103.478V201.475C103.478 200.798 103.428 200.319 103.327 200.04C103.232 199.755 103.074 199.535 102.855 199.381C102.635 199.226 102.388 199.149 102.115 199.149C101.55 199.149 101.09 199.375 100.733 199.826C100.377 200.272 100.199 200.976 100.199 201.938V207.438H98.8796V201.288C98.8796 200.504 98.7578 199.951 98.5142 199.63C98.2765 199.309 97.9467 199.149 97.5249 199.149C96.9248 199.149 96.4494 199.392 96.0989 199.88C95.7542 200.361 95.5819 201.243 95.5819 202.527V207.438H94.2718ZM63.3772 226.438H62.0581V216.215C61.7551 216.571 61.3481 216.937 60.8371 217.311C60.3261 217.679 59.8567 217.959 59.4289 218.149V216.598C60.1538 216.182 60.7925 215.674 61.3451 215.074C61.9036 214.474 62.2958 213.889 62.5216 213.318H63.3772V226.438ZM66.016 223.015L67.3975 222.872C67.5044 223.704 67.7451 224.325 68.1194 224.735C68.4997 225.139 68.9393 225.341 69.4384 225.341C70.0623 225.341 70.6001 225.056 71.0516 224.486C71.5032 223.909 71.729 223.125 71.729 222.133C71.729 221.2 71.5091 220.478 71.0695 219.967C70.6357 219.45 70.0891 219.192 69.4295 219.192C69.0314 219.192 68.6571 219.304 68.3065 219.53C67.9619 219.75 67.6886 220.059 67.4866 220.457L66.2477 220.261L67.2905 213.55H72.6113V215.083H68.3422L67.7629 218.594C68.3986 218.048 69.073 217.774 69.786 217.774C70.6832 217.774 71.4616 218.158 72.1211 218.924C72.7866 219.685 73.1193 220.713 73.1193 222.008C73.1193 223.285 72.7866 224.382 72.1211 225.297C71.4616 226.206 70.5733 226.66 69.4563 226.66C68.5294 226.66 67.7451 226.339 67.1033 225.698C66.4676 225.05 66.1051 224.156 66.016 223.015ZM73.8509 216.509C73.8509 215.422 74.0678 214.59 74.5015 214.013C74.9353 213.437 75.467 213.149 76.0969 213.149C76.7505 213.149 77.303 213.437 77.7546 214.013C78.2062 214.59 78.432 215.451 78.432 216.598C78.432 217.721 78.2062 218.58 77.7546 219.174C77.303 219.762 76.7564 220.056 76.1147 220.056C75.4849 220.056 74.9501 219.765 74.5104 219.183C74.0707 218.594 73.8509 217.703 73.8509 216.509ZM76.1414 214.254C75.8146 214.254 75.5413 214.429 75.3215 214.78C75.1076 215.124 75.0006 215.733 75.0006 216.607C75.0006 217.48 75.1076 218.089 75.3215 218.434C75.5413 218.779 75.8235 218.951 76.1682 218.951C76.4831 218.951 76.7475 218.779 76.9614 218.434C77.1812 218.083 77.2911 217.474 77.2911 216.607C77.2911 215.739 77.1812 215.13 76.9614 214.78C76.7415 214.429 76.4682 214.254 76.1414 214.254ZM76.1414 226.919L82.0059 213.149H83.0754L77.2377 226.919H76.1414ZM80.7849 223.372C80.7849 222.284 81.0018 221.452 81.4355 220.876C81.8692 220.3 82.3981 220.012 83.0219 220.012C83.6815 220.012 84.237 220.3 84.6886 220.876C85.1402 221.446 85.366 222.305 85.366 223.452C85.366 224.581 85.1372 225.442 84.6797 226.036C84.2281 226.625 83.6844 226.919 83.0487 226.919C82.4189 226.919 81.8841 226.625 81.4444 226.036C81.0047 225.448 80.7849 224.56 80.7849 223.372ZM83.0754 221.117C82.7427 221.117 82.4664 221.292 82.2465 221.643C82.0326 221.987 81.9257 222.596 81.9257 223.47C81.9257 224.343 82.0356 224.952 82.2555 225.297C82.4753 225.641 82.7575 225.814 83.1022 225.814C83.4111 225.814 83.6726 225.638 83.8865 225.288C84.1063 224.937 84.2162 224.328 84.2162 223.461C84.2162 222.593 84.1063 221.987 83.8865 221.643C83.6726 221.292 83.4022 221.117 83.0754 221.117Z" fill="#00C7FF"/>
<path d="M21.5472 133.682V120.616H22.9643V132.14H28.2405V133.682H21.5472ZM29.2305 133.682V120.616H33.2679C34.2186 120.616 34.9197 120.699 35.3713 120.865C35.9893 121.091 36.4824 121.51 36.8508 122.122C37.2192 122.734 37.4034 123.486 37.4034 124.377C37.4034 125.553 37.1033 126.513 36.5032 127.256C35.9031 127.998 34.8663 128.37 33.3927 128.37H30.6476V133.682H29.2305ZM30.6476 126.828H33.4195C34.2929 126.828 34.9316 126.632 35.3357 126.24C35.7397 125.842 35.9417 125.244 35.9417 124.448C35.9417 123.931 35.8407 123.489 35.6387 123.12C35.4426 122.752 35.202 122.499 34.9168 122.363C34.6375 122.226 34.1295 122.158 33.3927 122.158H30.6476V126.828ZM41.6472 133.682V120.616H46.3976C47.3899 120.616 48.1207 120.738 48.5901 120.981C49.0654 121.225 49.4546 121.632 49.7577 122.202C50.0607 122.767 50.2122 123.423 50.2122 124.172C50.2122 125.158 49.9537 125.957 49.4368 126.569C48.9258 127.181 48.1801 127.571 47.1997 127.737C47.5978 127.975 47.9009 128.215 48.1088 128.459C48.5307 128.958 48.902 129.514 49.2229 130.126L51.0945 133.682H49.312L47.886 130.963C47.3334 129.9 46.9145 129.184 46.6293 128.815C46.3501 128.447 46.0768 128.2 45.8094 128.076C45.5479 127.945 45.1796 127.88 44.7042 127.88H43.0643V133.682H41.6472ZM43.0643 126.382H46.1124C46.7779 126.382 47.2829 126.302 47.6275 126.142C47.9722 125.981 48.2455 125.729 48.4475 125.384C48.6495 125.039 48.7505 124.638 48.7505 124.181C48.7505 123.521 48.5574 123.004 48.1712 122.63C47.785 122.25 47.2116 122.06 46.4511 122.06H43.0643V126.382ZM56.8439 130.634L58.1986 130.839C57.9728 131.849 57.5628 132.612 56.9687 133.129C56.3804 133.64 55.6496 133.896 54.7762 133.896C53.6769 133.896 52.7857 133.48 52.1024 132.648C51.425 131.81 51.0863 130.604 51.0863 129.029C51.0863 127.395 51.428 126.151 52.1113 125.295C52.8005 124.433 53.671 124.003 54.7227 124.003C55.7268 124.003 56.5646 124.424 57.236 125.268C57.9074 126.112 58.2432 127.333 58.2432 128.931L58.2342 129.359H52.4411C52.4945 130.423 52.7411 131.225 53.1808 131.765C53.6205 132.306 54.1552 132.576 54.7851 132.576C55.7714 132.576 56.4577 131.929 56.8439 130.634ZM52.5213 128.04H56.8528C56.7934 127.22 56.6181 126.608 56.3269 126.204C55.9051 125.616 55.3674 125.322 54.7138 125.322C54.1255 125.322 53.6235 125.568 53.2075 126.061C52.7916 126.549 52.5629 127.208 52.5213 128.04ZM60.5522 133.682L58.1815 124.216H59.5451L60.775 129.68L61.2296 131.712L61.6396 129.76L62.8695 124.216H64.2242L65.3829 129.707L65.775 131.516L66.2206 129.689L67.5486 124.216H68.832L66.3989 133.682H65.0353L63.7964 128.013L63.5023 126.4L61.9337 133.682H60.5522ZM74.2605 132.514C73.8208 132.972 73.3633 133.316 72.888 133.548C72.4126 133.78 71.9195 133.896 71.4085 133.896C70.6004 133.896 69.9557 133.652 69.4744 133.165C68.9932 132.677 68.7525 132.021 68.7525 131.195C68.7525 130.648 68.8654 130.164 69.0912 129.742C69.317 129.32 69.626 128.991 70.0181 128.753C70.4103 128.515 71.0044 128.34 71.8006 128.227C72.8701 128.073 73.6544 127.888 74.1536 127.675L74.1625 127.265C74.1625 126.617 74.0466 126.162 73.8149 125.901C73.4881 125.521 72.986 125.331 72.3086 125.331C71.6966 125.331 71.2391 125.458 70.9361 125.714C70.6331 125.963 70.4103 126.436 70.2677 127.131L68.9753 126.917C69.1595 125.901 69.5309 125.161 70.0894 124.698C70.6539 124.234 71.459 124.003 72.5047 124.003C73.3187 124.003 73.9575 124.157 74.4209 124.466C74.8844 124.769 75.1755 125.146 75.2944 125.598C75.4191 126.049 75.4815 126.709 75.4815 127.577V129.716C75.4815 131.213 75.5083 132.158 75.5617 132.55C75.6212 132.936 75.734 133.313 75.9004 133.682H74.5279C74.3912 133.355 74.3021 132.966 74.2605 132.514ZM74.1536 128.931C73.6723 129.169 72.9563 129.371 72.0056 129.537C71.453 129.632 71.0668 129.742 70.847 129.867C70.6271 129.986 70.4548 130.158 70.3301 130.384C70.2112 130.604 70.1518 130.859 70.1518 131.15C70.1518 131.602 70.2914 131.964 70.5707 132.238C70.85 132.505 71.2362 132.639 71.7293 132.639C72.1987 132.639 72.6236 132.517 73.0038 132.273C73.39 132.03 73.6782 131.706 73.8683 131.302C74.0585 130.892 74.1536 130.298 74.1536 129.519V128.931ZM76.7924 133.682V124.216H77.9778V125.651C78.2808 124.986 78.5571 124.546 78.8066 124.332C79.0621 124.112 79.3473 124.003 79.6622 124.003C80.1019 124.003 80.5505 124.175 81.008 124.519L80.5624 126.008C80.2356 125.776 79.9177 125.66 79.6088 125.66C79.3295 125.66 79.074 125.758 78.8423 125.954C78.6106 126.151 78.4472 126.424 78.3521 126.774C78.1857 127.386 78.1025 128.037 78.1025 128.726V133.682H76.7924ZM86.0889 133.682V132.487C85.8513 132.945 85.5453 133.295 85.1709 133.539C84.7966 133.777 84.3926 133.896 83.9588 133.896C83.0438 133.896 82.2506 133.465 81.5792 132.603C80.9137 131.736 80.581 130.518 80.581 128.949C80.581 127.874 80.7295 126.962 81.0266 126.213C81.3237 125.464 81.7188 124.909 82.212 124.546C82.7111 124.184 83.2636 124.003 83.8697 124.003C84.3034 124.003 84.7045 124.118 85.0729 124.35C85.4472 124.576 85.7562 124.894 85.9998 125.304V120.616H87.3189V133.682H86.0889ZM81.9268 128.958C81.9268 130.182 82.1377 131.091 82.5596 131.685C82.9874 132.279 83.4835 132.576 84.048 132.576C84.6065 132.576 85.0907 132.291 85.5007 131.721C85.9107 131.15 86.1157 130.289 86.1157 129.136C86.1157 127.811 85.9107 126.846 85.5007 126.24C85.0907 125.628 84.5738 125.322 83.9499 125.322C83.3973 125.322 82.922 125.616 82.5239 126.204C82.1258 126.786 81.9268 127.704 81.9268 128.958ZM88.1485 130.856L89.4497 130.607C89.5269 131.272 89.7379 131.768 90.0825 132.095C90.4271 132.416 90.8846 132.576 91.455 132.576C92.0254 132.576 92.4651 132.437 92.7741 132.158C93.089 131.872 93.2465 131.513 93.2465 131.079C93.2465 130.705 93.1128 130.414 92.8454 130.206C92.6612 130.063 92.2156 129.885 91.5085 129.671C90.4865 129.356 89.8032 129.089 89.4586 128.869C89.114 128.649 88.8466 128.355 88.6565 127.986C88.4663 127.618 88.3713 127.199 88.3713 126.73C88.3713 125.922 88.6297 125.265 89.1467 124.76C89.6636 124.255 90.3796 124.003 91.2946 124.003C91.8709 124.003 92.376 124.107 92.8097 124.315C93.2494 124.522 93.5851 124.802 93.8169 125.152C94.0486 125.503 94.209 126.005 94.2981 126.659L93.0147 126.872C92.8959 125.839 92.3344 125.322 91.3302 125.322C90.7598 125.322 90.335 125.437 90.0557 125.669C89.7765 125.895 89.6369 126.186 89.6369 126.543C89.6369 126.893 89.7705 127.17 90.0379 127.372C90.1983 127.49 90.6737 127.68 91.4639 127.942C92.5513 128.292 93.2554 128.572 93.5762 128.78C93.8971 128.982 94.1466 129.261 94.3249 129.618C94.5031 129.968 94.5923 130.387 94.5923 130.874C94.5923 131.777 94.3041 132.508 93.7277 133.067C93.1573 133.625 92.376 133.904 91.3837 133.904C89.524 133.904 88.4455 132.888 88.1485 130.856ZM49.1252 152.682H47.8062V142.459C47.5031 142.815 47.0961 143.181 46.5851 143.555C46.0741 143.924 45.6047 144.203 45.1769 144.393V142.842C45.9018 142.426 46.5406 141.918 47.0932 141.318C47.6517 140.718 48.0438 140.133 48.2696 139.562H49.1252V152.682ZM51.7641 146.238C51.7641 144.045 52.0582 142.385 52.6464 141.256C53.2406 140.127 54.114 139.562 55.2667 139.562C56.2887 139.562 57.0938 140.02 57.682 140.935C58.395 142.04 58.7515 143.808 58.7515 146.238C58.7515 148.418 58.4574 150.076 57.8692 151.211C57.281 152.34 56.4075 152.904 55.2489 152.904C54.2269 152.904 53.3891 152.405 52.7355 151.407C52.0879 150.409 51.7641 148.686 51.7641 146.238ZM53.1099 146.238C53.1099 148.359 53.3119 149.782 53.7159 150.507C54.1259 151.226 54.6488 151.585 55.2845 151.585C55.8846 151.585 56.3867 151.22 56.7908 150.489C57.1948 149.758 57.3968 148.341 57.3968 146.238C57.3968 144.111 57.1918 142.688 56.7818 141.969C56.3778 141.25 55.852 140.89 55.2043 140.89C54.6101 140.89 54.111 141.256 53.707 141.987C53.3089 142.717 53.1099 144.134 53.1099 146.238ZM59.5989 142.753C59.5989 141.666 59.8158 140.834 60.2496 140.257C60.6833 139.681 61.2151 139.393 61.8449 139.393C62.4985 139.393 63.0511 139.681 63.5027 140.257C63.9542 140.834 64.18 141.695 64.18 142.842C64.18 143.965 63.9542 144.824 63.5027 145.418C63.0511 146.006 62.5044 146.3 61.8627 146.3C61.2329 146.3 60.6982 146.009 60.2585 145.427C59.8188 144.839 59.5989 143.947 59.5989 142.753ZM61.8895 140.498C61.5627 140.498 61.2894 140.673 61.0695 141.024C60.8556 141.369 60.7487 141.978 60.7487 142.851C60.7487 143.724 60.8556 144.334 61.0695 144.678C61.2894 145.023 61.5716 145.195 61.9162 145.195C62.2311 145.195 62.4955 145.023 62.7094 144.678C62.9293 144.328 63.0392 143.719 63.0392 142.851C63.0392 141.984 62.9293 141.375 62.7094 141.024C62.4896 140.673 62.2163 140.498 61.8895 140.498ZM61.8895 153.163L67.754 139.393H68.8235L62.9857 153.163H61.8895ZM66.5329 149.616C66.5329 148.528 66.7498 147.697 67.1836 147.12C67.6173 146.544 68.1461 146.256 68.77 146.256C69.4295 146.256 69.9851 146.544 70.4366 147.12C70.8882 147.691 71.114 148.549 71.114 149.696C71.114 150.825 70.8852 151.686 70.4277 152.281C69.9762 152.869 69.4325 153.163 68.7967 153.163C68.1669 153.163 67.6322 152.869 67.1925 152.281C66.7528 151.692 66.5329 150.804 66.5329 149.616ZM68.8235 147.361C68.4907 147.361 68.2144 147.536 67.9946 147.887C67.7807 148.231 67.6737 148.84 67.6737 149.714C67.6737 150.587 67.7837 151.196 68.0035 151.541C68.2234 151.885 68.5056 152.058 68.8502 152.058C69.1592 152.058 69.4206 151.882 69.6345 151.532C69.8544 151.181 69.9643 150.572 69.9643 149.705C69.9643 148.837 69.8544 148.231 69.6345 147.887C69.4206 147.536 69.1503 147.361 68.8235 147.361Z" fill="#00C7FF"/>
<defs>
<filter id="filter0_i_1155_2930" x="0.0491943" y="161.22" width="172.506" height="138.273" filterUnits="userSpaceOnUse" color-interpolation-filters="sRGB">
<feFlood flood-opacity="0" result="BackgroundImageFix"/>
<feBlend mode="normal" in="SourceGraphic" in2="BackgroundImageFix" result="shape"/>
<feColorMatrix in="SourceAlpha" type="matrix" values="0 0 0 0 0 0 0 0 0 0 0 0 0 0 0 0 0 0 127 0" result="hardAlpha"/>
<feOffset dx="7.60511" dy="3.80255"/>
<feGaussianBlur stdDeviation="7.60511"/>
<feComposite in2="hardAlpha" operator="arithmetic" k2="-1" k3="1"/>
<feColorMatrix type="matrix" values="0 0 0 0 0 0 0 0 0 0.780392 0 0 0 0 1 0 0 0 0.5 0"/>
<feBlend mode="normal" in2="shape" result="effect1_innerShadow_1155_2930"/>
</filter>
<filter id="filter1_i_1155_2930" x="162.382" y="67.2119" width="173.173" height="198.076" filterUnits="userSpaceOnUse" color-interpolation-filters="sRGB">
<feFlood flood-opacity="0" result="BackgroundImageFix"/>
<feBlend mode="normal" in="SourceGraphic" in2="BackgroundImageFix" result="shape"/>
<feColorMatrix in="SourceAlpha" type="matrix" values="0 0 0 0 0 0 0 0 0 0 0 0 0 0 0 0 0 0 127 0" result="hardAlpha"/>
<feOffset dx="7.60511" dy="3.80255"/>
<feGaussianBlur stdDeviation="7.60511"/>
<feComposite in2="hardAlpha" operator="arithmetic" k2="-1" k3="1"/>
<feColorMatrix type="matrix" values="0 0 0 0 0 0 0 0 0 0.780392 0 0 0 0 1 0 0 0 0.5 0"/>
<feBlend mode="normal" in2="shape" result="effect1_innerShadow_1155_2930"/>
</filter>
<filter id="filter2_i_1155_2930" x="65.454" y="162.67" width="238.317" height="169.084" filterUnits="userSpaceOnUse" color-interpolation-filters="sRGB">
<feFlood flood-opacity="0" result="BackgroundImageFix"/>
<feBlend mode="normal" in="SourceGraphic" in2="BackgroundImageFix" result="shape"/>
<feColorMatrix in="SourceAlpha" type="matrix" values="0 0 0 0 0 0 0 0 0 0 0 0 0 0 0 0 0 0 127 0" result="hardAlpha"/>
<feOffset dx="7.60511" dy="3.80255"/>
<feGaussianBlur stdDeviation="7.60511"/>
<feComposite in2="hardAlpha" operator="arithmetic" k2="-1" k3="1"/>
<feColorMatrix type="matrix" values="0 0 0 0 0 0 0 0 0 0.780392 0 0 0 0 1 0 0 0 0.5 0"/>
<feBlend mode="normal" in2="shape" result="effect1_innerShadow_1155_2930"/>
</filter>
<filter id="filter3_i_1155_2930" x="31.5892" y="0.0493164" width="142.308" height="169.627" filterUnits="userSpaceOnUse" color-interpolation-filters="sRGB">
<feFlood flood-opacity="0" result="BackgroundImageFix"/>
<feBlend mode="normal" in="SourceGraphic" in2="BackgroundImageFix" result="shape"/>
<feColorMatrix in="SourceAlpha" type="matrix" values="0 0 0 0 0 0 0 0 0 0 0 0 0 0 0 0 0 0 127 0" result="hardAlpha"/>
<feOffset dx="7.60511" dy="3.80255"/>
<feGaussianBlur stdDeviation="7.60511"/>
<feComposite in2="hardAlpha" operator="arithmetic" k2="-1" k3="1"/>
<feColorMatrix type="matrix" values="0 0 0 0 0 0 0 0 0 0.780392 0 0 0 0 1 0 0 0 0.5 0"/>
<feBlend mode="normal" in2="shape" result="effect1_innerShadow_1155_2930"/>
</filter>
<filter id="filter4_i_1155_2930" x="0.048584" y="65.458" width="174.472" height="103.326" filterUnits="userSpaceOnUse" color-interpolation-filters="sRGB">
<feFlood flood-opacity="0" result="BackgroundImageFix"/>
<feBlend mode="normal" in="SourceGraphic" in2="BackgroundImageFix" result="shape"/>
<feColorMatrix in="SourceAlpha" type="matrix" values="0 0 0 0 0 0 0 0 0 0 0 0 0 0 0 0 0 0 127 0" result="hardAlpha"/>
<feOffset dx="7.60511" dy="3.80255"/>
<feGaussianBlur stdDeviation="7.60511"/>
<feComposite in2="hardAlpha" operator="arithmetic" k2="-1" k3="1"/>
<feColorMatrix type="matrix" values="0 0 0 0 0 0 0 0 0 0.780392 0 0 0 0 1 0 0 0 0.5 0"/>
<feBlend mode="normal" in2="shape" result="effect1_innerShadow_1155_2930"/>
</filter>
<filter id="filter5_i_1155_2930" x="163.049" y="0.0498047" width="141.572" height="168.703" filterUnits="userSpaceOnUse" color-interpolation-filters="sRGB">
<feFlood flood-opacity="0" result="BackgroundImageFix"/>
<feBlend mode="normal" in="SourceGraphic" in2="BackgroundImageFix" result="shape"/>
<feColorMatrix in="SourceAlpha" type="matrix" values="0 0 0 0 0 0 0 0 0 0 0 0 0 0 0 0 0 0 127 0" result="hardAlpha"/>
<feOffset dx="7.60511" dy="3.80255"/>
<feGaussianBlur stdDeviation="7.60511"/>
<feComposite in2="hardAlpha" operator="arithmetic" k2="-1" k3="1"/>
<feColorMatrix type="matrix" values="0 0 0 0 0 0 0 0 0 0.780392 0 0 0 0 1 0 0 0 0.5 0"/>
<feBlend mode="normal" in2="shape" result="effect1_innerShadow_1155_2930"/>
</filter>
</defs>
</svg>
